solid OpenSCAD_Model
  facet normal 1 -0 0
    outer loop
      vertex 3 21 67
      vertex 3 65 3
      vertex 3 65 67
    endloop
  endfacet
  facet normal 1 0 0
    outer loop
      vertex 3 65 3
      vertex 3 21 67
      vertex 3 21 3
    endloop
  endfacet
  facet normal 0 0 1
    outer loop
      vertex 51.5 68 67
      vertex 48.5 65 67
      vertex 51.5 18 67
    endloop
  endfacet
  facet normal 0 0 1
    outer loop
      vertex 51.5 68 67
      vertex 3 65 67
      vertex 48.5 65 67
    endloop
  endfacet
  facet normal 0 0 1
    outer loop
      vertex 3 65 67
      vertex 0 68 67
      vertex 3 21 67
    endloop
  endfacet
  facet normal -0 0 1
    outer loop
      vertex 0 68 67
      vertex 3 65 67
      vertex 51.5 68 67
    endloop
  endfacet
  facet normal 0 0 1
    outer loop
      vertex 51.5 18 67
      vertex 48.5 65 67
      vertex 48.5 18 67
    endloop
  endfacet
  facet normal -0 0 1
    outer loop
      vertex 3 21 67
      vertex 23.5 18 67
      vertex 23.5 21 67
    endloop
  endfacet
  facet normal 0 0 1
    outer loop
      vertex 3 21 67
      vertex 0 18 67
      vertex 23.5 18 67
    endloop
  endfacet
  facet normal 0 0 1
    outer loop
      vertex 0 18 67
      vertex 3 21 67
      vertex 0 68 67
    endloop
  endfacet
  facet normal 0 0 -1
    outer loop
      vertex 0 18 0
      vertex 51.5 68 0
      vertex 51.5 18 0
    endloop
  endfacet
  facet normal -0 0 -1
    outer loop
      vertex 51.5 68 0
      vertex 0 18 0
      vertex 0 68 0
    endloop
  endfacet
  facet normal -1 0 0
    outer loop
      vertex 0 18 0
      vertex 0 68 67
      vertex 0 68 0
    endloop
  endfacet
  facet normal -1 -0 0
    outer loop
      vertex 0 68 67
      vertex 0 18 0
      vertex 0 18 67
    endloop
  endfacet
  facet normal 0 1 -0
    outer loop
      vertex 51.5 68 0
      vertex 0 68 67
      vertex 51.5 68 67
    endloop
  endfacet
  facet normal 0 1 0
    outer loop
      vertex 0 68 67
      vertex 51.5 68 0
      vertex 0 68 0
    endloop
  endfacet
  facet normal 0 -1 0
    outer loop
      vertex 0 18 67
      vertex 23.5 18 60
      vertex 23.5 18 67
    endloop
  endfacet
  facet normal 0 -1 0
    outer loop
      vertex 51.5 18 0
      vertex 23.5 18 60
      vertex 0 18 0
    endloop
  endfacet
  facet normal 0 -1 0
    outer loop
      vertex 0 18 0
      vertex 23.5 18 60
      vertex 0 18 67
    endloop
  endfacet
  facet normal 0 -1 0
    outer loop
      vertex 48.5 18 60
      vertex 51.5 18 67
      vertex 48.5 18 67
    endloop
  endfacet
  facet normal 0 -1 0
    outer loop
      vertex 48.5 18 60
      vertex 51.5 18 0
      vertex 51.5 18 67
    endloop
  endfacet
  facet normal 0 -1 0
    outer loop
      vertex 23.5 18 60
      vertex 51.5 18 0
      vertex 48.5 18 60
    endloop
  endfacet
  facet normal 1 -0 0
    outer loop
      vertex 51.5 18 67
      vertex 51.5 68 0
      vertex 51.5 68 67
    endloop
  endfacet
  facet normal 1 0 0
    outer loop
      vertex 51.5 68 0
      vertex 51.5 18 67
      vertex 51.5 18 0
    endloop
  endfacet
  facet normal -1 0 0
    outer loop
      vertex 48.5 21 60
      vertex 48.5 65 3
      vertex 48.5 21 3
    endloop
  endfacet
  facet normal -1 0 0
    outer loop
      vertex 48.5 65 3
      vertex 48.5 21 60
      vertex 48.5 65 67
    endloop
  endfacet
  facet normal -1 0 0
    outer loop
      vertex 48.5 18 67
      vertex 48.5 21 60
      vertex 48.5 18 60
    endloop
  endfacet
  facet normal -1 0 0
    outer loop
      vertex 48.5 21 60
      vertex 48.5 18 67
      vertex 48.5 65 67
    endloop
  endfacet
  facet normal 0 -1 0
    outer loop
      vertex 3 65 3
      vertex 48.5 65 67
      vertex 3 65 67
    endloop
  endfacet
  facet normal 0 -1 -0
    outer loop
      vertex 48.5 65 67
      vertex 3 65 3
      vertex 48.5 65 3
    endloop
  endfacet
  facet normal -0 0 1
    outer loop
      vertex 23.5 21 60
      vertex 48.5 18 60
      vertex 48.5 21 60
    endloop
  endfacet
  facet normal 0 0 1
    outer loop
      vertex 48.5 18 60
      vertex 23.5 21 60
      vertex 23.5 18 60
    endloop
  endfacet
  facet normal 0 1 0
    outer loop
      vertex 48.5 21 60
      vertex 48.5 21 3
      vertex 23.5 21 60
    endloop
  endfacet
  facet normal 0 1 -0
    outer loop
      vertex 23.5 21 60
      vertex 3 21 67
      vertex 23.5 21 67
    endloop
  endfacet
  facet normal 0 1 0
    outer loop
      vertex 3 21 3
      vertex 23.5 21 60
      vertex 48.5 21 3
    endloop
  endfacet
  facet normal 0 1 0
    outer loop
      vertex 23.5 21 60
      vertex 3 21 3
      vertex 3 21 67
    endloop
  endfacet
  facet normal 1 -0 0
    outer loop
      vertex 23.5 18 67
      vertex 23.5 21 60
      vertex 23.5 21 67
    endloop
  endfacet
  facet normal 1 0 0
    outer loop
      vertex 23.5 21 60
      vertex 23.5 18 67
      vertex 23.5 18 60
    endloop
  endfacet
  facet normal -0 0 1
    outer loop
      vertex 3 65 3
      vertex 48.5 21 3
      vertex 48.5 65 3
    endloop
  endfacet
  facet normal 0 0 1
    outer loop
      vertex 48.5 21 3
      vertex 3 65 3
      vertex 3 21 3
    endloop
  endfacet
endsolid OpenSCAD_Model
